<svg id="google" xmlns="http://www.w3.org/2000/svg" viewBox="0 0 123 127"><title>google-plus-square</title><rect width="123" height="127" style="fill:#eb4f50"/><path d="M67.437,59.813H43.062v8.85H57.7C57.112,72.457,53.277,79.8,43.062,79.8a16.3,16.3,0,0,1,0-32.6A14.526,14.526,0,0,1,53.35,51.184l7.006-6.748a24.744,24.744,0,0,0-17.294-6.748,25.812,25.812,0,0,0,0,51.625c14.9,0,24.784-10.473,24.784-25.223A23.717,23.717,0,0,0,67.437,59.813Z" style="fill:#fff"/><polygon points="76.25 67.187 87.313 67.187 87.313 78.25 94.688 78.25 94.688 67.187 105.75 67.187 105.75 59.812 94.688 59.812 94.688 48.75 87.313 48.75 87.313 59.812 76.25 59.812 76.25 67.187" style="fill:#fff"/></svg>