<?xml version="1.0" encoding="utf-8"?>
<!-- Generator: Adobe Illustrator 20.1.0, SVG Export Plug-In . SVG Version: 6.00 Build 0)  -->
<svg version="1.1" xmlns="http://www.w3.org/2000/svg" xmlns:xlink="http://www.w3.org/1999/xlink" x="0px" y="0px"
	 viewBox="0 0 430.5 141.8" style="enable-background:new 0 0 430.5 141.8;" xml:space="preserve">
<style type="text/css">
	.st0{fill:#264F0D;}
	.st1{fill:#FFFFFF;stroke:#264F0D;stroke-width:10;stroke-miterlimit:10;}
	.st2{fill:url(#SVGID_1_);}
	.st3{fill:#FFFFFF;stroke:#264F0D;stroke-width:9;stroke-miterlimit:10;}
	.st4{fill:url(#SVGID_2_);}
	.st5{fill:url(#SVGID_3_);}
	.st6{fill:url(#SVGID_4_);}
</style>
<g id="Bit_Outline_1_">
	<g>
		<path class="st0" d="M25.4,62c-2.7,0-5-2.2-5-5l0-46.3c0-2.8-2.2-5-5-5l-10.3,0c-2.7,0-5,2.3-5,5l0,120c0,2.8,2.2,5,5,5l58.8,0
			c2.7,0,5-2.3,5-5l0-63.7c0-2.8-2.2-5-5-5L25.4,62z M48.5,111.4c0,2.8-2.3,5-5,5l-18.1,0c-2.8,0-5-2.2-5-5l0-24.9c0-2.8,2.3-5,5-5
			l18.1,0c2.8,0,5,2.2,5,5L48.5,111.4z"/>
	</g>
	<g>
		<g>
			<g>
				<path class="st0" d="M107.2,131.7c0,2.8-2.3,5-5,5l-10.3,0c-2.8,0-5-2.2-5-5l0-63.7c0-2.8,2.3-5,5-5l10.3,0c2.8,0,5,2.2,5,5
					L107.2,131.7z"/>
			</g>
			<g>
				<path class="st0" d="M108.3,43.5c0,2.8-2.3,5-5,5l-10.3,0c-2.8,0-5-2.2-5-5l0-12.3c0-2.8,2.3-5,5-5l10.3,0c2.8,0,5,2.2,5,5
					L108.3,43.5z"/>
			</g>
		</g>
	</g>
	<g>
		<path class="st0" d="M182.1,82.4c2.8,0,5-2.3,5-5l0-9.4c0-2.8-2.2-5-5-5l-30.6,0c-2.8,0-5-2.2-5-5l0-46.3c0-2.8-2.2-5-5-5l-10.3,0
			c-2.8,0-5,2.3-5,5l0,120c0,2.8,2.2,5,5,5l51,0c2.8,0,5-2.3,5-5l0-9.4c0-2.8-2.2-5-5-5l-30.6,0c-2.8,0-5-2.2-5-5l0-24.9
			c0-2.8,2.3-5,5-5L182.1,82.4z"/>
	</g>
</g>
<g id="Lush">
	<g id="U">
		<path class="st1" d="M256.6,61.9c-8.5-0.4-10.7,5-11.8,8.6c-1.7,5-3,8.9-3.5,17.3c-0.9,15.4,4.8,33.3,8.6,39.6
			c3.2,5.2,9.9,7.9,23.3,7.8c10.5-0.1,15.7-3.4,20.3-7.7c8.4-7.7,9.3-32.4,9.3-37.2c0-4.9,0.7-19.2-5.8-26.4c-2.3-2.5-5.2-2.4-9-2.3
			c-3.7,0.1-6.6,2.7-7.3,4.2c-0.9,2-1.5,8.1-1.3,10.2c0.6,6.3,1,9.9,1.2,13c0.7,8.6-0.7,19.1-7.9,18.7c-6.2-0.3-7.4-8.7-7.7-18.6
			c-0.1-3.8,0.5-12.9,0.7-16.3C266.5,64.9,264.2,62.2,256.6,61.9z"/>
		<linearGradient id="SVGID_1_" gradientUnits="userSpaceOnUse" x1="268.462" y1="60.6435" x2="268.462" y2="134.358">
			<stop  offset="0" style="stop-color:#FFFFFF"/>
			<stop  offset="3.959858e-02" style="stop-color:#FEFEDC"/>
			<stop  offset="8.963466e-02" style="stop-color:#FEFEB8"/>
			<stop  offset="0.146" style="stop-color:#FDFD98"/>
			<stop  offset="0.2083" style="stop-color:#FCFC7C"/>
			<stop  offset="0.2786" style="stop-color:#FCFC66"/>
			<stop  offset="0.3607" style="stop-color:#FBFB55"/>
			<stop  offset="0.4623" style="stop-color:#FBFB4A"/>
			<stop  offset="0.6047" style="stop-color:#FBFB43"/>
			<stop  offset="1" style="stop-color:#FBFB41"/>
		</linearGradient>
		<path class="st2" d="M253,61c-8.5-0.4-10.7,5-11.8,8.6c-1.7,5-3,8.9-3.5,17.3c-0.9,15.4,4.8,33.3,8.6,39.6
			c3.2,5.2,9.9,7.9,23.3,7.8c10.5-0.1,15.7-3.4,20.3-7.7c8.4-7.7,9.3-32.4,9.3-37.2c0-4.9,0.7-19.2-5.8-26.4c-2.3-2.5-5.2-2.4-9-2.3
			c-3.7,0.1-6.6,2.7-7.3,4.2c-0.9,2-1.5,8.1-1.3,10.2c0.6,6.3,1,9.9,1.2,13c0.7,8.6-0.7,19.1-7.9,18.7c-6.2-0.3-7.4-8.7-7.7-18.6
			c-0.1-3.8,0.5-12.9,0.7-16.3C262.9,64,260.6,61.4,253,61z"/>
	</g>
	<g id="L">
		<path class="st3" d="M226.5,6.1c-21,1.9-16,22.9-16.2,40.4c-0.3,19.9-2.1,41.1-2.1,61.1c0,11-2.6,28.6,11,28.5
			c33.1-0.4,27.6-22.4,23.9-25.4c-4.4-3.6-13.4,4.4-13.3,1.2c0.2-5.8,0.6-8.7,0.6-16.1c0.1-7.8-0.5-18.8,0.1-32.9
			c1.1-25.5,15-57.9-3.1-56.7L226.5,6.1z"/>
		<linearGradient id="SVGID_2_" gradientUnits="userSpaceOnUse" x1="224.4749" y1="6.0923" x2="224.4749" y2="136.0177">
			<stop  offset="0" style="stop-color:#FFFFFF"/>
			<stop  offset="3.959858e-02" style="stop-color:#FEFEDC"/>
			<stop  offset="8.963466e-02" style="stop-color:#FEFEB8"/>
			<stop  offset="0.146" style="stop-color:#FDFD98"/>
			<stop  offset="0.2083" style="stop-color:#FCFC7C"/>
			<stop  offset="0.2786" style="stop-color:#FCFC66"/>
			<stop  offset="0.3607" style="stop-color:#FBFB55"/>
			<stop  offset="0.4623" style="stop-color:#FBFB4A"/>
			<stop  offset="0.6047" style="stop-color:#FBFB43"/>
			<stop  offset="1" style="stop-color:#FBFB41"/>
		</linearGradient>
		<path class="st4" d="M224.1,6.1c-21,1.9-16,22.9-16.2,40.4c-0.3,19.9-2.1,41.1-2.1,61.1c0,11-2.6,28.6,11,28.5
			c33.1-0.4,27.6-22.4,23.9-25.4c-4.4-3.6-13.4,4.4-13.3,1.2c0.2-5.8,0.6-8.7,0.6-16.1c0.1-7.8-0.5-18.8,0.1-32.9
			c1.1-25.5,15-57.9-3.1-56.7L224.1,6.1z"/>
	</g>
	<g id="H">
		<path class="st1" d="M384.1,5.1c-21,1.9-16,22.9-16.2,40.4c-0.3,19.9-2.1,41.1-2.1,61.1c0,11-2.6,27.7,11,28.5
			c5.3,0.3,8.5-0.2,10.8-11.1c1.1-5.6-0.5-21.9,0.5-29.2c0.5-3.8,0.1-11.8,3.6-14.3c4.2-2.4,7.4-1.4,8.8,2
			c5.8,15.1-5.6,54.6,14.7,53.3c5.4-0.3,6.4-3,7.8-9.3c1.8-7.8,1.5-10.8,1.6-15.1c0.3-10.2-1.1-18.3-2.4-27.6
			c-2.8-21.7-14.6-20.6-30.6-21.8C379.2,61.1,403,3.9,385,5.1L384.1,5.1z"/>
		<linearGradient id="SVGID_3_" gradientUnits="userSpaceOnUse" x1="391.4128" y1="4.0693" x2="391.4128" y2="134.8226">
			<stop  offset="0" style="stop-color:#FFFFFF"/>
			<stop  offset="3.959858e-02" style="stop-color:#FEFEDC"/>
			<stop  offset="8.963466e-02" style="stop-color:#FEFEB8"/>
			<stop  offset="0.146" style="stop-color:#FDFD98"/>
			<stop  offset="0.2083" style="stop-color:#FCFC7C"/>
			<stop  offset="0.2786" style="stop-color:#FCFC66"/>
			<stop  offset="0.3607" style="stop-color:#FBFB55"/>
			<stop  offset="0.4623" style="stop-color:#FBFB4A"/>
			<stop  offset="0.6047" style="stop-color:#FBFB43"/>
			<stop  offset="1" style="stop-color:#FBFB41"/>
		</linearGradient>
		<path class="st5" d="M380.5,4.1c-21,1.9-16,22.9-16.2,40.4c-0.3,19.9-2.1,41.1-2.1,61.1c0,11-2.6,27.7,11,28.5
			c5.3,0.3,8.5-0.2,10.8-11.1c1.1-5.6-0.5-21.9,0.5-29.2c0.5-3.8,0.1-11.8,3.6-14.3c4.2-2.4,7.4-1.4,8.8,2
			c5.8,15.1-5.6,54.6,14.7,53.3c5.4-0.3,6.4-3,7.8-9.3c1.8-7.8,1.5-10.8,1.6-15.1c0.3-10.2-1.1-18.3-2.4-27.6
			c-2.8-21.7-14.6-20.6-30.6-21.8c-12.3-0.9,11.5-58.1-6.6-56.9L380.5,4.1z"/>
	</g>
	<g id="S">
		<path class="st1" d="M317.9,66.9c-4.8,3.1-9.5,5.4-10.4,10.2c-1.9,9.4,1.9,16.6,11.7,23.2c4.9,3.3,10.5,5.6,13.3,10
			c2.1,3.1,4.2,10.7-3.2,11.3c-8.8,0.7-17.7-20.5-27.4-8.2c-2.6,3.1-3.9,8.7-3,12.5c0.9,4.3,6.5,6.1,11.9,7.7
			c12.8,3.8,27.4,1.3,37.4-5.1c10-6.4,11.6-16.7,4-24.5c-6.5-6.4-25.3-11-26.5-19.5c-0.7-5.1,6.3-6.2,11.9-4.4c5.8,1.8,6.7,7.7,13,8
			c14.6,0.8,17.2-14.9,10.6-20.7c-6.9-6.1-24.6-6.1-29.2-5.4C325.1,62.9,322,64.3,317.9,66.9z"/>
		<linearGradient id="SVGID_4_" gradientUnits="userSpaceOnUse" x1="328.2919" y1="60.8151" x2="328.2919" y2="134.4668">
			<stop  offset="0" style="stop-color:#FFFFFF"/>
			<stop  offset="3.959858e-02" style="stop-color:#FEFEDC"/>
			<stop  offset="8.963466e-02" style="stop-color:#FEFEB8"/>
			<stop  offset="0.146" style="stop-color:#FDFD98"/>
			<stop  offset="0.2083" style="stop-color:#FCFC7C"/>
			<stop  offset="0.2786" style="stop-color:#FCFC66"/>
			<stop  offset="0.3607" style="stop-color:#FBFB55"/>
			<stop  offset="0.4623" style="stop-color:#FBFB4A"/>
			<stop  offset="0.6047" style="stop-color:#FBFB43"/>
			<stop  offset="1" style="stop-color:#FBFB41"/>
		</linearGradient>
		<path class="st6" d="M314.8,66c-4.8,3.1-9.5,5.4-10.4,10.2c-1.9,9.4,1.9,16.6,11.7,23.2c4.9,3.3,10.5,5.6,13.3,10
			c2.1,3.1,4.2,10.7-3.2,11.3c-8.8,0.7-17.7-20.5-27.4-8.2c-2.6,3.1-3.9,8.7-3,12.5c0.9,4.3,6.5,6.1,11.9,7.7
			c12.8,3.8,27.4,1.3,37.4-5.1c10-6.4,11.6-16.7,4-24.5c-6.5-6.4-25.3-11-26.5-19.5c-0.7-5.1,6.3-6.2,11.9-4.4c5.8,1.8,6.7,7.7,13,8
			c14.6,0.8,17.2-14.9,10.6-20.7c-6.9-6.1-24.6-6.1-29.2-5.4C321.9,62,318.8,63.4,314.8,66z"/>
	</g>
</g>
</svg>
