<svg id="twitter" xmlns="http://www.w3.org/2000/svg" viewBox="0 0 123 127"><title>twitter-square</title><rect width="123" height="127" style="fill:#2cbae7"/><path d="M104.537,39.1a32.416,32.416,0,0,1-9.278,2.544,16.286,16.286,0,0,0,7.1-8.937A32.441,32.441,0,0,1,95.705,35.7c-3.34,1.068-3.395.679-6.034-1.195a16.163,16.163,0,0,0-25.1,16.856,46.219,46.219,0,0,1-33.3-16.879,16.321,16.321,0,0,0,5,21.567,16.143,16.143,0,0,1-7.317-2.02A16.289,16.289,0,0,0,41.918,70.073a16.245,16.245,0,0,1-7.3.276,16.306,16.306,0,0,0,15.09,11.218A32.735,32.735,0,0,1,25.8,88.258C43.022,99.3,66.881,97.631,81.844,83.481A47.551,47.551,0,0,0,94.739,62.032,45.951,45.951,0,0,0,96.5,50.786q.047-1.662-.029-3.325a32.83,32.83,0,0,0,8.062-8.361Z" style="fill:#fff"/></svg>