<svg id="Features" xmlns="http://www.w3.org/2000/svg" viewBox="0 0 585.792 388.761"><title>yorkshire-terrier-footer</title><path d="M584.662,113.178c3.141-6.992-.61-16.535-7.539-19.789a39.968,39.968,0,0,0-15.657-3.7,8.591,8.591,0,0,0-6.27,2.048,31.573,31.573,0,0,0-4.748,5.311q-.539.737-1.048,1.5a3.524,3.524,0,0,1-.4.609c-.161.062-.752-.218-.938-.272q-1.971-.57-3.945-1.132-3.572-1.016-7.154-1.993C527.076,93.06,517.1,90.588,507,88.86a143.762,143.762,0,0,0-17.142-1.995q-.985-.049-1.971-.079c-.373-.011-.62.05-.808-.174-.13-.154-.1-.7-.15-.913A4.958,4.958,0,0,0,485,82.72a9.173,9.173,0,0,0-4.946-2.154,86.2,86.2,0,0,1,9.892-7.534,109.7,109.7,0,0,1,10.7-6.46c.854-.441,1.725-.821,2.606-1.2.643-.28,1.944-.773,1.926-1.657-.032-1.535-3.561-2.038-4.629-2.261a80.686,80.686,0,0,0-12.767-1.323c-2.138-.1-4.279-.149-6.419-.117-.69.01-2.282.362-2.823-.09-.7-.585.306-1.687.717-2.148,2.657-2.983,6.516-5.169,10-7.027a39.347,39.347,0,0,1,5.671-2.556c.42-.144,1.832-.293,1.928-.822.127-.7-1.722-1.254-2.186-1.431a53.543,53.543,0,0,0-12.329-2.791c-9.557-1.211-19.5-1.1-28.531,2.561-.274-1.589,1.168-3.637,1.955-4.922A41.232,41.232,0,0,1,459.2,36.02a26.273,26.273,0,0,1,3.684-3.722c.937-.757,3.222-2.284,2.84-3.746-.4-1.526-3.575-1.217-4.723-1.263a31.281,31.281,0,0,0-6.005.529c-3.951.613-7.864,1.485-11.758,2.386-7.276,1.684-14.5,3.579-21.744,5.41L411.425,38.16c-.483.122-1.411.55-1.736.256-.48-.432-.725-1.93-.9-2.531a23.013,23.013,0,0,1-.612-2.8,26.263,26.263,0,0,1-.221-5.8c.464-6.857,3.123-13.393,6.2-19.459.753-1.483,1.526-2.958,2.251-4.455.4-.827,1.741-3.5-.235-3.347-.3.024-.791.413-1.059.385A3.292,3.292,0,0,0,414.7.06,1.157,1.157,0,0,0,414.284,0a2.457,2.457,0,0,0-1,.32A64.772,64.772,0,0,0,394.63,13.629c-8.161,8.212-14.166,18.4-19.24,28.734l-2.431,4.951c-.456.929-1.671.856-2.625,1.091-1.914.47-3.838.9-5.779,1.251-1.783.319-4.195.981-5.976.482a9.906,9.906,0,0,1-3.253-2.308,97.969,97.969,0,0,1-8.145-7.936c-4.557-4.934-8.763-10.168-12.886-15.466-.955-1.227-1.9-2.459-2.865-3.682-1.016-1.294-2.249-3.01-3.916-3.485a2.906,2.906,0,0,0-1.123-.069,2.189,2.189,0,0,1-.995-.1,2.546,2.546,0,0,0-1.258,0c-2.8.788-3.062,5.606-3.409,7.917-.619,4.122-1.055,8.271-1.637,12.4A166.27,166.27,0,0,1,314.1,61.289c-1.107,3.751-2.377,7.466-3.844,11.091-.806,1.992-1.594,4.082-2.595,5.99a15.922,15.922,0,0,1-2.835,3.06c-1.332,1.4-2.621,2.838-3.836,4.339-2.107,2.6-4.982,6.089-4.951,9.642a3.939,3.939,0,0,0,.578,2.131,2.047,2.047,0,0,0,1.265.831c.69.15,1.416-.267,2.046-.133a8.8,8.8,0,0,1-2.24,2.945c-1,1-2.065,1.93-3.13,2.858a41.9,41.9,0,0,0-5.578,5.413c-1.06,1.344-2.061,3.131-1.74,4.908.261,1.446,1.6,2.026,2.81,2.559.293.129.521.145.566.447.06.4-.435,1.1-.63,1.415a13.016,13.016,0,0,1-2.741,2.978,41.813,41.813,0,0,1-7.021,4.619,90.129,90.129,0,0,1-9.144,4.333,146.14,146.14,0,0,1-34.689,9.059,167.344,167.344,0,0,1-30.8,1.514c1.033-1.533,4.692-6.042.988-7.06a3.441,3.441,0,0,0-1.124-.064A14.278,14.278,0,0,1,204.02,134a13.422,13.422,0,0,0-1.6.1c-2.5.193-5,.43-7.491.682-10.319,1.041-20.634,2.21-30.868,3.915-3.953.659-7.9,1.372-11.806,2.287a9.231,9.231,0,0,0,2.085-3.732,2.548,2.548,0,0,0-1.825-2.909,7.157,7.157,0,0,0-1.484.024,6.225,6.225,0,0,0-1.846-.176,17.183,17.183,0,0,0-2.067.652,143.277,143.277,0,0,1-21.307,4.865c-15.185,2.586-30.518,4.148-45.782,6.17-4.277.567-8.553,1.161-12.8,1.9a71.255,71.255,0,0,0-12,2.86c-.837-8.041.364-16.343,2.335-24.14a69.25,69.25,0,0,1,5.993-15.7,50.618,50.618,0,0,1,4.792-7.288c1.3-1.662,2.494-3.39,1.227-5.529a9.554,9.554,0,0,0-4.3-3.372,3.115,3.115,0,0,1-.537-.242c-.057-.123.261-.774.308-.9.178-.487.376-.966.58-1.442.509-1.183,1.066-2.346,1.638-3.5,2.372-4.783,5.015-9.433,7.665-14.067,3.753-6.564,7.755-13.017,11.3-19.7-.008.016-.014.034-.022.05,1.4-2.69-.708-4.933-3.33-5.327A68.976,68.976,0,0,1,91.3,37.2c4.448-5.165,9.68-9.581,14.866-13.978,5.9-5.005,11.7-10.127,17.493-15.252L129.4,2.893l-3.274,1.323,1.509-1.332c-8.233,3.216-16.53,6.309-24.651,9.8-9.246,3.977-18.354,8.3-27.208,13.09A164.655,164.655,0,0,0,50.965,41.689,64.918,64.918,0,0,0,40.7,51.8c-1.063,1.333-1.808,2.89-1.145,4.613a4.4,4.4,0,0,0,4.433,2.593A153.731,153.731,0,0,0,26.935,76.994c-2.435,2.967-4.794,6-7.126,9.044a6.616,6.616,0,0,0-1.515,2.63,3.6,3.6,0,0,0,1.282,3.494,4.315,4.315,0,0,0,1.393.678,8.9,8.9,0,0,0,2.2-.082,4.779,4.779,0,0,0,2.23-.316,11.062,11.062,0,0,0,1.634-1.031Q22.9,100.083,18.8,108.768c-5.22,11.042-10.523,22.068-15.158,33.371-.93,2.267-1.846,4.55-2.608,6.88a12.606,12.606,0,0,0-.985,5.409,4.059,4.059,0,0,0,1.939,2.994,3.941,3.941,0,0,0,2.694.451c.632-.12,1.22-.016,1.864-.11A44.333,44.333,0,0,0,4.91,172.444a54.587,54.587,0,0,0,2.31,10.84c.463,1.573.922,3.148,1.257,4.754a12.261,12.261,0,0,1,.508,3.594,3.511,3.511,0,0,1-.6,1.225,42.451,42.451,0,0,0-4.362,8.851c-.648,2.132-.818,4.639.64,6.494a5.431,5.431,0,0,0,2.324,1.7c1.148.441,2.18.143,3.332.267C8.638,216.544,8.209,223.1,7.7,229.646c-.176,2.242-.541,4.524.3,6.688,1.123,2.876,3.89,4.141,6.843,4.164-1.464,1.7-2.831,3.821-2.58,6.173a6.828,6.828,0,0,0,2.583,4.263c1.9,1.693,4.1,3.031,6.051,4.667a38.454,38.454,0,0,1,5.173,5.266,51.975,51.975,0,0,1,6.753,10.9c.59,1.283.14,3.19-.106,4.589-.444,2.533-1.107,5.021-1.719,7.517-.91,3.706-2.912,10.653,2.627,11.732-1.779,5.61-3.918,11.128-6.2,16.55a35.733,35.733,0,0,0-1.833,4.254,3.8,3.8,0,0,0,2.971,4.786q-1.749,4.609-3.535,9.2c-1.865,4.825-4.05,9.671-5.324,14.7-.383,1.512-.4,3.07.859,4.209a3.365,3.365,0,0,0,2.37.872,51.892,51.892,0,0,0-1.154,5.173,58.056,58.056,0,0,0-.188,6.281,26.065,26.065,0,0,1-.42,5.367,5.425,5.425,0,0,0,.23,3.7,3.734,3.734,0,0,0,.72.981c.163.159.579.339.688.525.182.309.046,1.072.088,1.45.064.572.16,1.142.28,1.7a21.024,21.024,0,0,0,1.259,3.9c1.3,3.019,3.326,6.167,6.689,7.035a60.579,60.579,0,0,0,11.91,1.769c1.022.055,2.045.122,3.069.116a24.792,24.792,0,0,1,2.923-.053,13.91,13.91,0,0,0,2.022.144c3.426-.087,6.851-.247,10.257-.64,2.755-.318,5.943-.537,8.527-1.571a7.634,7.634,0,0,0,2.468-1.57c.37-.356.623-.8.973-1.164.2-.206.121-.292.39-.32a2.922,2.922,0,0,1,.767.205,28.7,28.7,0,0,0,6.963.7c3.547-.025,9.268-.366,11.006-4.187,0-.02-.174.021-.2.028.089-.282.44-.54.644-.759a11.915,11.915,0,0,0,1.234-1.488,14.552,14.552,0,0,0,.822-1.758,14.141,14.141,0,0,0,.909-1.683,6.014,6.014,0,0,0-1.257-5.652c-.623-.841-1.27-1.664-1.9-2.5-.875-1.15-1.743-2.312-2.512-3.536a7.973,7.973,0,0,1-.976-1.869,16.083,16.083,0,0,1-.181-3,5.519,5.519,0,0,1,.14-1.772,13.882,13.882,0,0,1,.976-1.776l4.241-7.715c2.7-4.9,5.3-9.87,8.092-14.72.883-1.535,2.013-2.948,2.983-4.432,1.821-2.789,3.539-5.649,5.118-8.582.706-1.311,1.366-2.643,2.026-3.976.279-.562.56-1.123.83-1.689.173-.363.752-2.214,1.05-2.323.185-.067.9.313,1.1.381q.641.221,1.284.44,1.285.437,2.574.861a228.438,228.438,0,0,0,33.79,8.28,185.321,185.321,0,0,0,34.819,2.523c4.885-.117,9.748-.341,14.626-.621,9.188-.526,18.369-1.357,27.495-2.55q7.391-.967,14.737-2.2a268.893,268.893,0,0,0,26.986-5.92c1.688-.464,3.365-.966,5.036-1.485q1.209-.375,2.413-.769c.2-.066.924-.438,1.111-.369.257.1.59.858.724,1.078a34.531,34.531,0,0,1,3.406,8.874c1.735,6.292,2.761,13.317,6.387,18.879,1.022,1.568,3.776,5.414,6.031,3.637.893,2.954.9,6.1,1.051,9.152a42.073,42.073,0,0,0,.454,4.806c.205,1.239.616,2.439.722,3.693.252,2.991-.379,5.992-.567,8.969-.1,1.522-.309,6.044,2.474,5.272a15.241,15.241,0,0,0-.7,3.888c.064,1.2,1.009,1.765,1.981,2.289a29.28,29.28,0,0,0,8.44,2.665,32.973,32.973,0,0,0,3.909.519,18.188,18.188,0,0,0,1.927.035c.508-.021.414-.059.791.241a13.311,13.311,0,0,1,.935,1.056,13.622,13.622,0,0,0,6.619,3.288,48.021,48.021,0,0,0,9.17,1.26c2.485.131,4.942.052,7.426-.042a53.932,53.932,0,0,0,7.84-.763c2.586-.481,6.162-1.2,7.45-3.8-.07.142.01.056.188.036-.1,0,.518-.6.536-.61a12.73,12.73,0,0,1,1.154-.632,6.818,6.818,0,0,0,2.813-2.438,7.245,7.245,0,0,0,.379-5.586c-.534-1.716-2.009-3.409-2.979-4.941a91.884,91.884,0,0,1-6.9-12.286,15.527,15.527,0,0,1-1.571-7.345,34.928,34.928,0,0,1,1.828-8.4c.5-1.553,1.059-3.085,1.613-4.619.371-1.027,1.092-2.4.924-3.534a45.131,45.131,0,0,0-1.476-4.98,1.147,1.147,0,0,0,1.355-.585c1.02.964,1.933.246,2.052-.966a25.342,25.342,0,0,0-.283-6.048,80.682,80.682,0,0,0-3.1-12.948c.345-.035.61-.454.847-.487.134-.019.521.274.675.31a1.171,1.171,0,0,0,.874-.088c.875-.487,1.226-2.354,1.514-3.19a90.414,90.414,0,0,0,2.7-10.435c.779-3.62,1.486-7.256,2.287-10.872a49.549,49.549,0,0,1,3.027-10.357c.2-.418.685-1.7,1.16-1.872s1.791.813,2.287,1.1c1.474.864,2.877,1.838,4.331,2.734a4.606,4.606,0,0,0,1.724.817,1.255,1.255,0,0,0,.828-.191c.449-.241.227-.285.71-.1,1.721.671,1.617-1.049,1.289-2.168-.268-.913-.549-1.823-.872-2.718-.467-1.293-1.54-2.885-.854-4.266.626-1.262,2.223-2,3.437-2.564a38.219,38.219,0,0,1,4.979-1.8c1.553-.468,3.122-.877,4.683-1.317.627-.177,2.259-.405,2.153-1.259s-2.03-1.383-2.632-1.6c-1.706-.6-3.532-.686-5.241-1.236,5.892-4.571,12.636-8.076,19.252-11.467q5.443-2.789,10.982-5.385,1.411-.661,2.828-1.308.708-.323,1.419-.643l.533-.239c.461-.206.424-.18.812-.02.539.222.975.683,1.559.9a3.8,3.8,0,0,0,2.22.151,6.718,6.718,0,0,1,1.32-.351c.337,0,.376.1.665.368l1.741,1.624L425.376,238a3.4,3.4,0,0,1,1.89-.076l2.447.467c-.062-.108-.077-.251-.148-.353,6.154,3.668,13.019,6.093,19.759,8.446a85.9,85.9,0,0,0,10.755,3.144c3.642.758,7.281.436,10.959.8,2.042.2,4.065.576,6.11.744a28.142,28.142,0,0,0,3.009.157c1-.026,1.989-.2,2.989-.2,5.831.021,11.253-2.452,16.26-5.3a149.776,149.776,0,0,0,12.828-8.307c.739-.527,1.465-1.125,2.24-1.6s1.552-.128,2.364.108c1.427.414,2.8.99,4.214,1.446a8.411,8.411,0,0,0,3.648.574,5.22,5.22,0,0,1,.741-.135,8.63,8.63,0,0,0,1.007.037,2.039,2.039,0,0,0,1.46-1.22,30.305,30.305,0,0,0,2.549-7.309c.37-1.359.731-2.721,1.1-4.082a28.105,28.105,0,0,1,1.974-6.087,34.666,34.666,0,0,1,3.394,2.035c.852.549,2.228,1.786,3.284,1.78.555,0,.453-.4.857-.523.28-.088.73.364,1.077.387.831.054,1.41-1.2,1.761-1.794a44.223,44.223,0,0,0,3.277-7.5q.457-1.267.868-2.55c.087-.272.206-1.14.43-1.294s1.361.273,1.673.341a10.434,10.434,0,0,0,1.59.256,11.438,11.438,0,0,0,1.523-.177,7.405,7.405,0,0,0,2.189-.2c2.368-.831,4.11-3.072,5.311-5.175a23.489,23.489,0,0,0,2.771-7.743c.471-2.8-.013-5.246-.428-8.008a56.945,56.945,0,0,1-.113-12.044A147.964,147.964,0,0,1,565,161c.835-4.747,1.585-9.9,3.541-14.344.122-.278.324-.918.567-1.061.336-.2,1.869.42,2.249.529.708.2,1.4.451,2.1.666a4.21,4.21,0,0,0,1.551.3,5.4,5.4,0,0,0,.628-.193,1.2,1.2,0,0,1,.459-.057c.624.01,1.139.3,1.667-.217a3.055,3.055,0,0,0,.641-1.589,39.885,39.885,0,0,0,.492-9.149,29.521,29.521,0,0,0-1.6-9.06,11.623,11.623,0,0,1-.794-2.031c-.069-.514-.081-.393.318-.8.278-.281.554-.562.827-.847.984-1.031,1.922-2.107,2.8-3.229a32.821,32.821,0,0,0,4.217-6.742C584.786,112.9,584.635,113.237,584.662,113.178ZM64.464,95.455h0S64.463,95.457,64.464,95.455Zm85.441,40.922c0-.014,0-.008,0,0Zm141.073-19c.025.01.026.024,0,0Zm-143,19.089.4.373-.411.137C147.976,137.037,147.979,136.461,147.98,136.462ZM92.194,379.711c.024-.059.047-.118.07-.177A1.079,1.079,0,0,1,92.194,379.711Zm.069-.14c-.061.177.048-.075,0,0Z" transform="translate(0.008 -0.002)" style="fill:#bdccd4"/></svg>